<?xml version="1.0" encoding="utf-8"?>
<!-- Generator: Adobe Illustrator 22.1.0, SVG Export Plug-In . SVG Version: 6.00 Build 0)  -->
<svg version="1.1" id="Capa_1" xmlns="http://www.w3.org/2000/svg" xmlns:xlink="http://www.w3.org/1999/xlink" x="0px" y="0px"
	 viewBox="0 0 19.6 38.4" style="enable-background:new 0 0 19.6 38.4;" xml:space="preserve">
<style type="text/css">
	.st0{fill:#009CDE;}
</style>
<title>facebook</title>
<g id="Capa_2_1_">
	<g id="Capa_1-2">
		<path class="st0" d="M8.7,38.4H5.8c-0.3,0-0.6-0.1-0.8-0.3c-0.2-0.2-0.3-0.5-0.3-0.8V26.8c0-0.3,0.3-0.6,0.6-0.6l0,0
			c0.3,0,0.6,0.3,0.6,0.6c0,1.9,0,3.8,0,5.7v4.7h5.5V20.8c0-0.3,0-0.6,0.2-0.8c0.2-0.2,0.5-0.3,0.8-0.2h5.6c0-0.3,0-0.9,0.1-1.5
			c0-1.2,0.1-2.7,0.2-3.6h-5.9c-0.3,0-0.5-0.1-0.7-0.3c-0.2-0.2-0.3-0.4-0.2-0.7c0-0.2,0-0.4,0-0.6v-0.5c0-0.4,0-0.7,0-1.1
			c0-1,0-2,0.1-3c0-1.2,0.9-2.1,2-2.3c0.3-0.1,1.4-0.1,4.4-0.1h0.3c0-0.4,0-1.1,0-2s0-2.1,0.1-2.7c-0.9,0-3.5-0.2-4.4-0.2
			c-1.1,0-2.2,0.2-3.3,0.6C8.6,2.5,7.1,4,6.4,5.9C6.1,6.9,5.9,7.8,5.9,8.8v1c0,1.3,0,2.6,0,3.9c0,0.3-0.1,0.5-0.3,0.7
			c-0.2,0.2-0.4,0.3-0.7,0.3H1.3v5.1h1c0.6,0,1.1,0,1.8,0c1.1,0,1.8,0.9,1.8,2.3c0,0.3-0.3,0.6-0.6,0.6c-0.3,0-0.6-0.3-0.6-0.6
			c0-0.3,0-0.5-0.2-0.8C4.4,21.1,4.3,21,4.1,21h-3C0.3,21,0,20.6,0,19.9v-5.4c0-0.3,0.1-0.6,0.3-0.8c0.2-0.2,0.5-0.3,0.8-0.3h3.6
			c0-1.2,0-2.4,0-3.6v-1c0-1.1,0.2-2.2,0.5-3.3C6,3.3,7.8,1.5,10.1,0.7C11.3,0.2,12.6,0,13.9,0c1.1,0,4.3,0.2,4.8,0.2
			c0.5,0,0.9,0.4,0.9,0.9c0,0,0,0.1,0,0.1c0,0.4,0,1.7-0.1,3c0,1.1-0.1,2.2-0.1,2.3c0,0.5-0.3,0.9-0.8,0.9c0,0,0,0,0,0h-0.7
			c-0.9,0-3.8,0-4.1,0.1c-0.6,0-1,0.5-1,1.1c0,1,0,2-0.1,2.9c0,0.4,0,0.7,0,1.1v0.8h5.8c0.3,0,0.6,0,0.9,0.3
			c0.2,0.2,0.3,0.5,0.2,0.8c0,0.8-0.1,2.5-0.2,3.8c0,0.8-0.1,1.5-0.1,1.7c0.1,0.5-0.3,1-0.8,1c-0.1,0-0.2,0-0.2,0h-5.6v16.2
			c0,0.3-0.1,0.6-0.3,0.9c-0.2,0.2-0.6,0.3-0.9,0.3H8.7z"/>
	</g>
</g>
</svg>
