<svg xmlns="http://www.w3.org/2000/svg" viewBox="0 0 19.58 38.4"><defs><style>.cls-1{fill:#fff;}</style></defs><title>facebook</title><g id="Capa_2" data-name="Capa 2"><g id="Capa_1-2" data-name="Capa 1"><path class="cls-1" d="M8.67,38.4H5.77a1.2,1.2,0,0,1-.85-.26,1.08,1.08,0,0,1-.26-.84V26.77a.63.63,0,0,1,.63-.63h0a.64.64,0,0,1,.64.63c0,1.89,0,3.78,0,5.67v4.71h5.52V20.75a1,1,0,0,1,.24-.79,1,1,0,0,1,.79-.23h5.61c0-.3,0-.85.07-1.49.05-1.22.12-2.73.16-3.59H12.38a1,1,0,0,1-.71-.26.87.87,0,0,1-.23-.69c0-.21,0-.42,0-.64v-.48c0-.37,0-.74,0-1.11,0-1,0-2,.06-3a2.3,2.3,0,0,1,2-2.29c.27-.06,1.41-.09,4.38-.12h.29c0-.4,0-1.09.05-2s.05-2.07.07-2.67c-.94,0-3.46-.16-4.42-.17a9.47,9.47,0,0,0-3.3.6A6.68,6.68,0,0,0,6.4,5.94a8,8,0,0,0-.47,2.87v1c0,1.27,0,2.58,0,3.87a1,1,0,0,1-.25.69,1,1,0,0,1-.71.25H1.26v5.08h1c.58,0,1.08,0,1.84,0,1.11,0,1.82.89,1.82,2.28a.63.63,0,0,1-.63.62A.63.63,0,0,1,4.66,22a1.75,1.75,0,0,0-.15-.78A.41.41,0,0,0,4.1,21h-3C.33,21,0,20.64,0,19.92V14.47a1.07,1.07,0,0,1,.26-.81,1.11,1.11,0,0,1,.82-.25H4.67c0-1.19,0-2.39,0-3.56v-1a9.52,9.52,0,0,1,.54-3.3A8,8,0,0,1,10.14.67,10.78,10.78,0,0,1,13.88,0C15,0,18.23.15,18.7.19a.89.89,0,0,1,.86,1c0,.44,0,1.73-.07,3,0,1.09-.06,2.22-.06,2.35a.85.85,0,0,1-.82.88l-.71,0c-.93,0-3.77,0-4.13.08a1.09,1.09,0,0,0-1,1.13c0,1,0,2-.06,2.92,0,.37,0,.74,0,1.1v.81h5.8a1.1,1.1,0,0,1,.86.25,1.05,1.05,0,0,1,.22.84c0,.81-.11,2.47-.18,3.8,0,.81-.06,1.47-.07,1.66a.92.92,0,0,1-1.07,1H12.7V37.25a1.17,1.17,0,0,1-.25.88,1.14,1.14,0,0,1-.9.27Zm-2.74-.94ZM4.67,13.75Zm9.1-6.3Z"/></g></g></svg>