<?xml version="1.0" encoding="utf-8"?>
<!-- Generator: Adobe Illustrator 22.1.0, SVG Export Plug-In . SVG Version: 6.00 Build 0)  -->
<svg version="1.1" id="Capa_1" xmlns="http://www.w3.org/2000/svg" xmlns:xlink="http://www.w3.org/1999/xlink" x="0px" y="0px"
	 viewBox="0 0 32 32" style="enable-background:new 0 0 32 32;" xml:space="preserve">
<style type="text/css">
	.st0{fill:#009CDE;}
</style>
<title>instagram</title>
<g id="Capa_2_1_">
	<g id="Capa_1-2">
		<path class="st0" d="M25.1,8.7c1,0,1.7-0.8,1.7-1.7S26,5.2,25.1,5.2S23.3,6,23.3,6.9v0C23.3,7.9,24.1,8.7,25.1,8.7z M32,12.5
			c0-1.8-0.1-3.7-0.5-5.5c-0.2-1.2-0.6-2.3-1.3-3.3c-0.6-0.9-1.4-1.6-2.3-2.2c-1-0.6-2.1-1-3.3-1.1l0,0h-0.4C22.7,0.1,21.1,0,19.5,0
			c-3.2,0-3.7,0-7,0C10.6,0,8.8,0.1,7,0.5C5.8,0.7,4.6,1.1,3.6,1.8C2.8,2.4,2.1,3.2,1.5,4.1c-0.6,1-1,2.1-1.1,3.3l0,0
			c0,0.1,0,0.3,0,0.4C0.1,9.3,0,10.9,0,12.6c0,3.2,0,3.7,0,7c0,1.9,0.1,3.7,0.4,5.5c0.2,1.2,0.6,2.3,1.3,3.3
			c0.6,0.9,1.4,1.6,2.3,2.1c1,0.6,2.1,1,3.3,1.1l0,0l0.4,0c1.6,0.2,3.2,0.3,4.8,0.3l3.5,0h3.5c1.9,0,3.7-0.1,5.6-0.4l0,0
			c1.8-0.3,3.4-1.4,4.4-3c0.2-0.3,0.1-0.6-0.2-0.7c-0.2-0.2-0.6-0.1-0.7,0.2c0,0,0,0,0,0c-0.8,1.3-2.2,2.2-3.7,2.5
			c-1.8,0.3-3.6,0.5-5.4,0.4c-3.2,0-3.8,0-6.9,0c-1.6,0-3.1-0.1-4.7-0.3l-0.4,0c-1-0.1-2-0.5-2.8-1c-0.8-0.5-1.4-1.1-1.9-1.8l0,0
			c-0.6-0.8-1-1.8-1.1-2.9c-0.3-1.8-0.5-3.6-0.4-5.4c0-3.2,0-3.8,0-6.9c0-1.6,0.1-3.1,0.3-4.7c0-0.1,0-0.3,0-0.4c0.1-1,0.5-2,1-2.8
			c0.4-0.8,1.1-1.5,1.8-2l0,0c0.9-0.6,1.8-1,2.9-1.2c1.8-0.3,3.6-0.5,5.4-0.4c3.2,0,3.8,0,6.9,0c1.6,0,3.1,0.1,4.7,0.3l0.4,0
			c1,0.1,2,0.5,2.9,1c0.8,0.5,1.4,1.1,1.9,1.8l0,0c0.6,0.8,1,1.8,1.1,2.9c0.3,1.8,0.5,3.6,0.4,5.4c0,3.2,0,3.8,0,6.9
			c0,1.6-0.1,3.1-0.3,4.7c0,0.1,0,0.3,0,0.4c-0.1,0.3,0.1,0.6,0.4,0.6c0.3,0.1,0.6-0.1,0.6-0.4c0,0,0,0,0,0c0-0.1,0-0.3,0-0.4
			c0.2-1.6,0.4-3.2,0.4-4.8C32,16.3,32,15.7,32,12.5z M16,8.3c-4.2,0-7.7,3.4-7.7,7.7s3.4,7.7,7.7,7.7s7.7-3.4,7.7-7.7
			C23.7,11.8,20.2,8.3,16,8.3z M16,22.6c-3.7,0-6.6-3-6.6-6.6s3-6.6,6.6-6.6s6.6,3,6.6,6.6S19.7,22.6,16,22.6
			C16,22.6,16,22.6,16,22.6z"/>
	</g>
</g>
</svg>
