<svg xmlns="http://www.w3.org/2000/svg" viewBox="0 0 32 32"><defs><style>.cls-1{fill:#fff;}</style></defs><title>instagram</title><g id="Capa_2" data-name="Capa 2"><g id="Capa_1-2" data-name="Capa 1"><path class="cls-1" d="M25.08,8.66a1.74,1.74,0,1,0-1.74-1.74A1.74,1.74,0,0,0,25.08,8.66ZM32,12.49A27.05,27.05,0,0,0,31.52,7a7.66,7.66,0,0,0-1.34-3.31A7.11,7.11,0,0,0,27.9,1.52,8.89,8.89,0,0,0,24.65.39h0l-.37,0A32.14,32.14,0,0,0,19.45,0c-3.16,0-3.74,0-7,0A27.13,27.13,0,0,0,7,.48,7.66,7.66,0,0,0,3.64,1.82,7.22,7.22,0,0,0,1.52,4.1,8.89,8.89,0,0,0,.39,7.35h0c0,.13,0,.25,0,.37A32.14,32.14,0,0,0,0,12.55c0,3.16,0,3.74,0,7a27.32,27.32,0,0,0,.45,5.55,7.62,7.62,0,0,0,1.34,3.3A7.11,7.11,0,0,0,4.1,30.48a8.71,8.71,0,0,0,3.25,1.13h0l.37.05a30.78,30.78,0,0,0,4.82.31L16,32l3.53,0a28.27,28.27,0,0,0,5.55-.44h0a6.61,6.61,0,0,0,4.36-2.95.54.54,0,0,0-.18-.74.53.53,0,0,0-.74.18,5.61,5.61,0,0,1-3.68,2.46,26.24,26.24,0,0,1-5.36.42c-3.2,0-3.78,0-6.93,0a30.55,30.55,0,0,1-4.68-.3l-.38-.05a7.66,7.66,0,0,1-2.85-1A6.25,6.25,0,0,1,2.7,27.74v0a6.56,6.56,0,0,1-1.15-2.85,26.34,26.34,0,0,1-.43-5.38c0-3.2,0-3.78,0-6.93a32.11,32.11,0,0,1,.3-4.68c0-.12,0-.25.05-.37a7.53,7.53,0,0,1,1-2.85A6,6,0,0,1,4.26,2.71l0,0A6.55,6.55,0,0,1,7.14,1.54a26.14,26.14,0,0,1,5.37-.43c3.2,0,3.78,0,6.93,0a32,32,0,0,1,4.68.3l.38.05a7.66,7.66,0,0,1,2.85,1A6.25,6.25,0,0,1,29.3,4.26v0a6.55,6.55,0,0,1,1.15,2.86,26.14,26.14,0,0,1,.43,5.37c0,3.2,0,3.78,0,6.93a30.55,30.55,0,0,1-.3,4.68c0,.12,0,.25-.05.38a.54.54,0,1,0,1.07.14c0-.13,0-.25.05-.37A32.14,32.14,0,0,0,32,19.45C32,16.29,32,15.71,32,12.49ZM16,8.31A7.69,7.69,0,1,0,23.69,16,7.7,7.7,0,0,0,16,8.31Zm0,14.3A6.61,6.61,0,1,1,22.61,16,6.61,6.61,0,0,1,16,22.61Z"/></g></g></svg>