<?xml version="1.0" encoding="utf-8"?>
<!-- Generator: Adobe Illustrator 22.1.0, SVG Export Plug-In . SVG Version: 6.00 Build 0)  -->
<svg version="1.1" id="Capa_1" xmlns="http://www.w3.org/2000/svg" xmlns:xlink="http://www.w3.org/1999/xlink" x="0px" y="0px"
	 viewBox="0 0 12.4 12.3" style="enable-background:new 0 0 12.4 12.3;" xml:space="preserve">
<style type="text/css">
	.st0{fill:#009CDE;}
</style>
<g>
	<path class="st0" d="M11.3,12.3H1.1c-0.6,0-1.1-0.5-1.1-1.1V1.1C0,0.5,0.5,0,1.1,0h10.2c0.6,0,1.1,0.5,1.1,1.1
		c0,0.1-0.1,0.2-0.2,0.2c-0.1,0-0.2-0.1-0.2-0.2c0-0.4-0.3-0.6-0.7-0.6H1.1c-0.4,0-0.7,0.3-0.7,0.6v10.1c0,0.4,0.3,0.7,0.7,0.7h10.2
		c0.4,0,0.7-0.3,0.7-0.7V3.1c0-0.1,0.1-0.2,0.2-0.2c0.1,0,0.2,0.1,0.2,0.2v8.2C12.4,11.8,11.9,12.3,11.3,12.3z"/>
	<path class="st0" d="M3.8,10.6H2c-0.1,0-0.2-0.1-0.2-0.2V4.7c0-0.1,0.1-0.2,0.2-0.2h1.8C3.9,4.5,4,4.6,4,4.7S3.9,4.9,3.8,4.9H2.2
		v5.2h1.4V5.8c0-0.1,0.1-0.2,0.2-0.2S4,5.7,4,5.8v4.6C4,10.5,3.9,10.6,3.8,10.6z M2.9,4.2c-0.7,0-1.2-0.6-1.2-1.3
		c0-0.6,0.5-1.2,1.2-1.2s1.2,0.5,1.2,1.2S3.6,4.2,2.9,4.2z M2.9,2.1c-0.5,0-0.8,0.4-0.8,0.8c0,0.5,0.3,0.8,0.8,0.8s0.8-0.3,0.8-0.8
		C3.7,2.5,3.3,2.1,2.9,2.1z"/>
	<path class="st0" d="M10.4,10.6H8.6c-0.1,0-0.2-0.1-0.2-0.2V8.7c0-0.1,0.1-0.2,0.2-0.2c0.1,0,0.2,0.1,0.2,0.2v1.5h1.4V7.3
		c0-0.9-0.1-1.4-0.4-1.8C9.5,5,9,4.8,8.3,4.8C7.5,4.8,7,5.2,6.8,5.6c0,0.1-0.1,0.1-0.2,0.1l0,0c-0.1,0-0.2-0.1-0.2-0.2V4.9H5.1v5.2
		h1.4V7.6c0-0.3,0-0.8,0.2-1.1c0.2-0.4,0.5-0.6,1-0.6s0.8,0.2,1,0.6c0.1,0.3,0.1,0.8,0.1,1.1c0,0.1-0.1,0.2-0.2,0.2
		c-0.1,0-0.2-0.1-0.2-0.2c0-0.9-0.1-1.3-0.7-1.3C7.3,6.3,7.1,6.5,7,6.7S6.9,7.3,6.9,7.6v2.8c0,0.1-0.1,0.2-0.2,0.2H4.9
		c-0.1,0-0.2-0.1-0.2-0.2V4.7c0-0.1,0.1-0.2,0.2-0.2h1.7c0.1,0,0.2,0.1,0.2,0.2v0.2C6.9,4.8,7,4.8,7.1,4.7c0.3-0.2,0.7-0.3,1.2-0.3
		c2,0,2.3,1.5,2.3,2.9v3.1C10.6,10.5,10.5,10.6,10.4,10.6z"/>
</g>
</svg>
