<svg xmlns="http://www.w3.org/2000/svg" viewBox="0 0 38.37 31.57"><defs><style>.cls-1{fill:#fff;}</style></defs><title>twitter</title><g id="Capa_2" data-name="Capa 2"><g id="Capa_1-2" data-name="Capa 1"><path class="cls-1" d="M12.31,31.57c-.63,0-1.28,0-1.93-.07a21.61,21.61,0,0,1-5.56-1.19A41.93,41.93,0,0,1,.33,28.13.62.62,0,0,1,0,27.4.63.63,0,0,1,.68,27a15,15,0,0,0,9.45-2.21A8.35,8.35,0,0,1,7,23.33a8.9,8.9,0,0,1-2.93-4,.62.62,0,0,1,.07-.6.63.63,0,0,1,.54-.26c.19,0,.38,0,.56,0h.12a8.23,8.23,0,0,1-4-7.08.63.63,0,0,1,.89-.61q.54.24,1.14.45A8.18,8.18,0,0,1,1.49,6.85,8.09,8.09,0,0,1,2.55,1.74.61.61,0,0,1,3,1.43a.63.63,0,0,1,.54.22,21.49,21.49,0,0,0,9.5,6.61.65.65,0,0,1,.4.81.63.63,0,0,1-.8.39A22.58,22.58,0,0,1,3.24,3.18,6.69,6.69,0,0,0,2.75,6.7a7,7,0,0,0,3,5,.62.62,0,0,1,.23.7.63.63,0,0,1-.6.44h0a7.88,7.88,0,0,1-2.67-.51c.46,3,2.23,5,5.4,6a.63.63,0,0,1-.07,1.22,11.07,11.07,0,0,1-1.71.22c-.23,0-.46,0-.7,0a7,7,0,0,0,2.1,2.55,7.75,7.75,0,0,0,4.07,1.43.65.65,0,0,1,.56.46.62.62,0,0,1-.23.67,16.73,16.73,0,0,1-5.5,2.79,16.53,16.53,0,0,1-3.41.58c.72.35,1.46.69,2,.88a20.47,20.47,0,0,0,5.24,1.12A22.14,22.14,0,0,0,19.76,29a19.78,19.78,0,0,0,6.91-4.29,21.34,21.34,0,0,0,3.85-5,22.6,22.6,0,0,0,2.37-6.23,19.89,19.89,0,0,0,.46-5,1.15,1.15,0,0,1,.45-1L34,7.37c.46-.38.94-.77,1.37-1.18.22-.2.43-.42.64-.65l-.13,0c-.49.13-1,.23-1.47.33L33.75,6a.62.62,0,0,1-.72-.4l0-.1a.63.63,0,0,1,.24-.74,7.36,7.36,0,0,0,2.18-2.2,17.08,17.08,0,0,1-3.08,1,1.11,1.11,0,0,1-1.11-.33,6.4,6.4,0,0,0-3.44-1.85,6.78,6.78,0,0,0-6.21,1.72A5.51,5.51,0,0,0,19.51,8a2.73,2.73,0,0,1-.66,2.35,2.2,2.2,0,0,1-2,.52.63.63,0,1,1,.19-1.25A1,1,0,0,0,18,9.41a1.63,1.63,0,0,0,.28-1.3,6.73,6.73,0,0,1,2.45-5.89A8,8,0,0,1,28,.18,7.67,7.67,0,0,1,32.1,2.36,15.54,15.54,0,0,0,36.18.79l.17-.08.12-.06a.62.62,0,0,1,.69.09.65.65,0,0,1,.19.68A8.28,8.28,0,0,1,35.71,4.3c.38-.11.77-.25,1.17-.39l.65-.22a.64.64,0,0,1,.71.21.63.63,0,0,1,0,.73,13.28,13.28,0,0,1-2.07,2.48c-.46.44-.95.84-1.42,1.23l-.16.14a21.65,21.65,0,0,1-.48,5.33,23.94,23.94,0,0,1-2.51,6.58,22.67,22.67,0,0,1-4.08,5.26,21,21,0,0,1-7.34,4.56A23,23,0,0,1,12.31,31.57Z"/></g></g></svg>