<svg xmlns="http://www.w3.org/2000/svg" viewBox="0 0 47.31 29.61"><defs><style>.cls-1{fill:#fff;}</style></defs><title>youtube</title><g id="Capa_2" data-name="Capa 2"><g id="Capa_1-2" data-name="Capa 1"><path class="cls-1" d="M46.69,3.53c-3.06,0-3.87,3.33-3.87,5.09V24.77a3.61,3.61,0,0,1-3.6,3.61H4.83a3.61,3.61,0,0,1-3.6-3.61V4.84a3.61,3.61,0,0,1,3.6-3.61H39.22a.61.61,0,0,0,.62-.61A.62.62,0,0,0,39.22,0H4.83A4.84,4.84,0,0,0,0,4.84V24.77a4.84,4.84,0,0,0,4.83,4.84H39.22a4.84,4.84,0,0,0,4.83-4.84V8.62c0-.16.05-3.86,2.64-3.86a.62.62,0,1,0,0-1.23Z"/><path class="cls-1" d="M18.71,8.78a1.08,1.08,0,0,0-.54.93V19.9a1.08,1.08,0,0,0,.54.93,1,1,0,0,0,1.07,0l8.82-5.09a1.08,1.08,0,0,0,0-1.87L19.78,8.78A1.08,1.08,0,0,0,18.71,8.78Zm.69,10.84V10l8.34,4.81Z"/></g></g></svg>