<?xml version="1.0" encoding="utf-8"?>
<!-- Generator: Adobe Illustrator 22.1.0, SVG Export Plug-In . SVG Version: 6.00 Build 0)  -->
<svg version="1.1" id="Capa_1" xmlns="http://www.w3.org/2000/svg" xmlns:xlink="http://www.w3.org/1999/xlink" x="0px" y="0px"
	 viewBox="0 0 47.3 29.6" style="enable-background:new 0 0 47.3 29.6;" xml:space="preserve">
<style type="text/css">
	.st0{fill:#009CDE;}
</style>
<title>youtube</title>
<g id="Capa_2_1_">
	<g id="Capa_1-2">
		<path class="st0" d="M46.7,3.5c-3.1,0-3.9,3.3-3.9,5.1v16.2c0,2-1.6,3.6-3.6,3.6H4.8c-2,0-3.6-1.6-3.6-3.6V4.8
			c0-2,1.6-3.6,3.6-3.6h34.4c0.3,0,0.6-0.3,0.6-0.6c0,0,0,0,0,0c0-0.3-0.3-0.6-0.6-0.6H4.8C2.2,0,0,2.2,0,4.8v19.9
			c0,2.7,2.2,4.8,4.8,4.8h34.4c2.7,0,4.8-2.2,4.8-4.8V8.6c0-0.2,0-3.9,2.6-3.9c0.3,0,0.7-0.2,0.7-0.5s-0.2-0.7-0.5-0.7
			C46.8,3.5,46.7,3.5,46.7,3.5z"/>
		<path class="st0" d="M18.7,8.8c-0.3,0.2-0.5,0.5-0.5,0.9v10.2c0,0.4,0.2,0.7,0.5,0.9c0.3,0.2,0.7,0.2,1.1,0l8.8-5.1
			c0.5-0.3,0.7-1,0.4-1.5c-0.1-0.2-0.2-0.3-0.4-0.4l-8.8-5.1C19.4,8.6,19,8.6,18.7,8.8z M19.4,19.6V10l8.3,4.8L19.4,19.6z"/>
	</g>
</g>
</svg>
