<?xml version="1.0" encoding="utf-8"?>
<!-- Generator: Adobe Illustrator 22.1.0, SVG Export Plug-In . SVG Version: 6.00 Build 0)  -->
<svg version="1.1" id="Capa_1" xmlns="http://www.w3.org/2000/svg" xmlns:xlink="http://www.w3.org/1999/xlink" x="0px" y="0px"
	 viewBox="0 0 54.9 39.3" style="enable-background:new 0 0 54.9 39.3;" xml:space="preserve">
<style type="text/css">
	.st0{display:none;}
	.st1{fill:#009CDE;}
</style>
<g id="Capa_2_1_" class="st0">
</g>
<g id="Capa_1_1_">
	<g>
		<path class="st1" d="M6.3,39.3h42.3c3.5,0,6.3-2.8,6.3-6.3V6.3c0-3.5-2.8-6.3-6.3-6.3H6.3C2.8,0,0,2.8,0,6.3V33
			C0,36.4,2.9,39.3,6.3,39.3z M48.7,36.4H6.3c-1.9,0-3.4-1.5-3.4-3.4V12l24.6,14.3l24.6-14.4v21C52.1,34.8,50.5,36.4,48.7,36.4z
			 M6.3,2.8h42.3c1.9,0,3.4,1.5,3.4,3.4v2.4L27.5,22.9L2.9,8.6V6.3C2.9,4.4,4.5,2.8,6.3,2.8z"/>
	</g>
</g>
</svg>
