<?xml version="1.0" encoding="utf-8"?>
<!-- Generator: Adobe Illustrator 22.1.0, SVG Export Plug-In . SVG Version: 6.00 Build 0)  -->
<svg version="1.1" id="Capa_1" xmlns="http://www.w3.org/2000/svg" xmlns:xlink="http://www.w3.org/1999/xlink" x="0px" y="0px"
	 viewBox="0 0 16 16" style="enable-background:new 0 0 16 16;" xml:space="preserve">
<style type="text/css">
	.st0{fill:#009CDE;}
</style>
<g>
	<path class="st0" d="M8,16c-4.4,0-8-3.6-8-8s3.6-8,8-8s8,3.6,8,8S12.4,16,8,16z M8,1.1C4.2,1.1,1.1,4.2,1.1,8s3.1,6.9,6.9,6.9
		s6.9-3.1,6.9-6.9S11.8,1.1,8,1.1z"/>
	<path class="st0" d="M6.5,12.9c-0.3,0-0.6-0.1-0.8-0.4c-0.4-0.4-0.4-1.1,0.1-1.5l3.3-3L5.8,5C5.3,4.6,5.3,3.9,5.7,3.5
		C6.1,3,6.8,3,7.2,3.4l4.2,3.8c0.2,0.2,0.4,0.5,0.4,0.8s-0.1,0.6-0.4,0.8l-4.2,3.8C7,12.8,6.8,12.9,6.5,12.9z"/>
</g>
</svg>
